<mxfile host="app.diagrams.net" modified="2022-02-24T17:38:30.614Z" agent="5.0 (Windows NT 10.0; Win64; x64) AppleWebKit/537.36 (KHTML, like Gecko) Chrome/98.0.4758.102 Safari/537.36" etag="V17fRBut0QE2lIOD22ys" version="16.6.2" type="github">
  <diagram id="cIo0DHPot3-Hd6l7QGBM" name="Page-1">
    <mxGraphModel dx="868" dy="460" grid="1" gridSize="10" guides="1" tooltips="1" connect="1" arrows="1" fold="1" page="1" pageScale="1" pageWidth="827" pageHeight="1169" math="0" shadow="0">
      <root>
        <mxCell id="0" />
        <mxCell id="1" parent="0" />
        <mxCell id="7wVFfREWzVeCF4haYoxY-12" style="edgeStyle=orthogonalEdgeStyle;rounded=0;orthogonalLoop=1;jettySize=auto;html=1;entryX=-0.014;entryY=0.154;entryDx=0;entryDy=0;entryPerimeter=0;" edge="1" parent="1" source="7wVFfREWzVeCF4haYoxY-1" target="7wVFfREWzVeCF4haYoxY-8">
          <mxGeometry relative="1" as="geometry" />
        </mxCell>
        <mxCell id="7wVFfREWzVeCF4haYoxY-21" value="productos" style="edgeLabel;html=1;align=center;verticalAlign=middle;resizable=0;points=[];" vertex="1" connectable="0" parent="7wVFfREWzVeCF4haYoxY-12">
          <mxGeometry x="0.7549" y="-1" relative="1" as="geometry">
            <mxPoint x="-5" y="-18" as="offset" />
          </mxGeometry>
        </mxCell>
        <mxCell id="7wVFfREWzVeCF4haYoxY-22" value="4" style="edgeLabel;html=1;align=center;verticalAlign=middle;resizable=0;points=[];" vertex="1" connectable="0" parent="7wVFfREWzVeCF4haYoxY-12">
          <mxGeometry x="0.2551" y="3" relative="1" as="geometry">
            <mxPoint x="52" y="17" as="offset" />
          </mxGeometry>
        </mxCell>
        <mxCell id="7wVFfREWzVeCF4haYoxY-1" value="Tienda" style="swimlane;fontStyle=0;childLayout=stackLayout;horizontal=1;startSize=26;fillColor=none;horizontalStack=0;resizeParent=1;resizeParentMax=0;resizeLast=0;collapsible=1;marginBottom=0;" vertex="1" parent="1">
          <mxGeometry x="150" y="200" width="140" height="52" as="geometry" />
        </mxCell>
        <mxCell id="7wVFfREWzVeCF4haYoxY-2" value="+ dinero_en_caja: int" style="text;strokeColor=none;fillColor=none;align=left;verticalAlign=top;spacingLeft=4;spacingRight=4;overflow=hidden;rotatable=0;points=[[0,0.5],[1,0.5]];portConstraint=eastwest;" vertex="1" parent="7wVFfREWzVeCF4haYoxY-1">
          <mxGeometry y="26" width="140" height="26" as="geometry" />
        </mxCell>
        <mxCell id="7wVFfREWzVeCF4haYoxY-5" value="Producto" style="swimlane;fontStyle=0;childLayout=stackLayout;horizontal=1;startSize=26;fillColor=none;horizontalStack=0;resizeParent=1;resizeParentMax=0;resizeLast=0;collapsible=1;marginBottom=0;" vertex="1" parent="1">
          <mxGeometry x="480" y="170" width="140" height="156" as="geometry" />
        </mxCell>
        <mxCell id="7wVFfREWzVeCF4haYoxY-6" value="+ nombre: str" style="text;strokeColor=none;fillColor=none;align=left;verticalAlign=top;spacingLeft=4;spacingRight=4;overflow=hidden;rotatable=0;points=[[0,0.5],[1,0.5]];portConstraint=eastwest;" vertex="1" parent="7wVFfREWzVeCF4haYoxY-5">
          <mxGeometry y="26" width="140" height="26" as="geometry" />
        </mxCell>
        <mxCell id="7wVFfREWzVeCF4haYoxY-8" value="+ tipo: int" style="text;strokeColor=none;fillColor=none;align=left;verticalAlign=top;spacingLeft=4;spacingRight=4;overflow=hidden;rotatable=0;points=[[0,0.5],[1,0.5]];portConstraint=eastwest;" vertex="1" parent="7wVFfREWzVeCF4haYoxY-5">
          <mxGeometry y="52" width="140" height="26" as="geometry" />
        </mxCell>
        <mxCell id="7wVFfREWzVeCF4haYoxY-9" value="+ cantidad_bodega: int" style="text;strokeColor=none;fillColor=none;align=left;verticalAlign=top;spacingLeft=4;spacingRight=4;overflow=hidden;rotatable=0;points=[[0,0.5],[1,0.5]];portConstraint=eastwest;" vertex="1" parent="7wVFfREWzVeCF4haYoxY-5">
          <mxGeometry y="78" width="140" height="26" as="geometry" />
        </mxCell>
        <mxCell id="7wVFfREWzVeCF4haYoxY-10" value="precio: float" style="text;strokeColor=none;fillColor=none;align=left;verticalAlign=top;spacingLeft=4;spacingRight=4;overflow=hidden;rotatable=0;points=[[0,0.5],[1,0.5]];portConstraint=eastwest;" vertex="1" parent="7wVFfREWzVeCF4haYoxY-5">
          <mxGeometry y="104" width="140" height="26" as="geometry" />
        </mxCell>
        <mxCell id="7wVFfREWzVeCF4haYoxY-11" value="cantidad_minima: int" style="text;strokeColor=none;fillColor=none;align=left;verticalAlign=top;spacingLeft=4;spacingRight=4;overflow=hidden;rotatable=0;points=[[0,0.5],[1,0.5]];portConstraint=eastwest;" vertex="1" parent="7wVFfREWzVeCF4haYoxY-5">
          <mxGeometry y="130" width="140" height="26" as="geometry" />
        </mxCell>
      </root>
    </mxGraphModel>
  </diagram>
</mxfile>
